HIERARCHY
ROOT Hips
{
	OFFSET 0.000000 0.000000 0.000000 
	CHANNELS 6 Xposition Yposition Zposition Zrotation Yrotation Xrotation
	JOINT LeftUpLeg
	{
		OFFSET 1.363060 -1.794630 0.839290 
		CHANNELS 3 Zrotation Yrotation Xrotation
		JOINT LeftLeg
		{
			OFFSET 2.448110 -6.726130 0.000000 
			CHANNELS 3 Zrotation Yrotation Xrotation
			JOINT LeftFoot
			{
				OFFSET 2.562200 -7.039590 0.000000 
				CHANNELS 3 Zrotation Yrotation Xrotation
				JOINT LeftToeBase
				{
					OFFSET 0.157640 -0.433110 2.322550 
					CHANNELS 3 Zrotation Yrotation Xrotation
					End Site
					{
						OFFSET 0.000000 0.000000 0.000000 
					}
				}
			}
		}
	}
	JOINT RightUpLeg
	{
		OFFSET -1.305520 -1.794630 0.839290 
		CHANNELS 3 Zrotation Yrotation Xrotation
		JOINT RightLeg
		{
			OFFSET -2.542530 -6.985550 0.000000 
			CHANNELS 3 Zrotation Yrotation Xrotation
			JOINT RightFoot
			{
				OFFSET -2.568260 -7.056230 0.000000 
				CHANNELS 3 Zrotation Yrotation Xrotation
				JOINT RightToeBase
				{
					OFFSET -0.164730 -0.452590 2.363150 
					CHANNELS 3 Zrotation Yrotation Xrotation
					End Site
					{
						OFFSET 0.000000 0.000000 0.000000 
					}
				}
			}
		}
	}
	JOINT Spine
	{
		OFFSET 0.028270 2.035590 -0.193380 
		CHANNELS 3 Zrotation Yrotation Xrotation
		JOINT Spine1
		{
			OFFSET 0.056720 2.048850 -0.042750 
			CHANNELS 3 Zrotation Yrotation Xrotation
			JOINT Neck1
			{
				OFFSET -0.054170 1.746240 0.172020 
				CHANNELS 3 Zrotation Yrotation Xrotation
				JOINT Head
				{
					OFFSET 0.104070 1.761360 -0.123970 
					CHANNELS 3 Zrotation Yrotation Xrotation
					End Site
					{
						OFFSET 0.000000 0.000000 0.000000 
					}
				}
			}
			JOINT LeftArm
			{
				OFFSET 3.362410 1.200890 -0.311210 
				CHANNELS 3 Zrotation Yrotation Xrotation
				JOINT LeftForeArm
				{
					OFFSET 4.983000 -0.000000 -0.000000 
					CHANNELS 3 Zrotation Yrotation Xrotation
					JOINT LeftHand
					{
						OFFSET 3.483560 -0.000000 -0.000000 
						CHANNELS 3 Zrotation Yrotation Xrotation
						JOINT LeftHandIndex1
						{
							OFFSET 0.715260 -0.000000 -0.000000 
							CHANNELS 3 Zrotation Yrotation Xrotation
							End Site
							{
								OFFSET 0.000000 0.000000 0.000000 
							}
						}
					}
				}
			}
			JOINT RightArm
			{
				OFFSET -3.136600 1.374050 -0.404650 
				CHANNELS 3 Zrotation Yrotation Xrotation
				JOINT RightForeArm
				{
					OFFSET -5.241900 -0.000000 -0.000000 
					CHANNELS 3 Zrotation Yrotation Xrotation
					JOINT RightHand
					{
						OFFSET -3.444170 -0.000000 -0.000000 
						CHANNELS 3 Zrotation Yrotation Xrotation
						JOINT RightHandIndex1
						{
							OFFSET -0.622530 -0.000000 -0.000000 
							CHANNELS 3 Zrotation Yrotation Xrotation
							End Site
							{
								OFFSET 0.000000 0.000000 0.000000 
							}
						}
					}
				}
			}
		}
	}
}
MOTION
Frames: 15
Frame Time: 0.041667
10.238630 12.607773 11.668609 160.217275 -54.165455 -166.719459 -6.955904 2.917175 -37.027056 1.845845 13.547907 28.527335 1.659838 12.937396 46.333058 0.000000 0.000000 0.000000 -13.369618 -1.503253 -41.278622 -8.582472 -17.959358 41.499067 -34.926206 -10.212849 124.282381 -4.892800 13.262000 -40.357400 -0.558386 2.433698 -2.581142 7.657170 1.447507 -10.796330 2.418616 2.153588 -1.632539 -1.962700 0.140400 -2.673400 -10.843832 -13.331105 -45.351022 93.476063 -65.208145 -97.962062 -3.243265 -2.845779 37.568192 -7.125000 0.000000 0.000000 45.741470 22.728254 -8.382242 -27.856874 29.483326 -27.579044 -3.981465 3.040018 -52.025036 7.125000 0.000000 0.000000 
10.267293 12.545057 11.651648 160.237258 -53.748814 -167.189721 -7.003403 3.599541 -37.059483 1.832396 13.425214 28.283782 1.699876 13.037434 46.569655 0.000000 0.000000 0.000000 -13.555394 -1.030317 -41.218825 -8.448347 -17.938100 41.153772 -34.888067 -10.315722 124.122916 -4.998500 13.382100 -40.816300 -0.693657 2.691303 -2.425862 7.950005 1.610537 -10.944053 2.368963 2.333748 -1.792669 -2.093900 0.180300 -2.914500 -10.479405 -13.281283 -45.833528 92.603027 -65.472054 -97.679639 -3.321325 -2.862108 37.622139 -7.125000 0.000000 0.000000 45.631753 22.890927 -8.613904 -28.302781 29.637026 -28.089322 -3.992868 3.051608 -52.156211 7.125000 0.000000 0.000000 
10.283333 12.484707 11.671239 159.962706 -53.768649 -167.130805 -7.066358 3.650111 -37.204196 1.711531 13.319004 27.933109 1.714406 13.114701 46.644417 0.000000 0.000000 0.000000 -13.677494 -1.159717 -41.367909 -8.403970 -17.862327 40.850222 -35.066901 -11.110233 124.237442 -4.820200 13.178500 -40.040200 -0.743438 2.717015 -2.369413 7.938924 1.643130 -11.018633 2.342799 2.332446 -1.908075 -2.042800 0.184100 -3.051700 -10.290101 -13.358459 -46.177589 92.306580 -65.574318 -97.578215 -3.388820 -2.860435 37.661871 -7.125000 0.000000 0.000000 45.282228 23.029960 -8.958842 -28.549364 29.648763 -28.486053 -3.941193 3.129889 -52.316125 7.125000 0.000000 0.000000 
10.289119 12.413840 11.705950 159.449993 -54.182066 -166.345730 -7.096882 3.221606 -37.662355 1.471861 13.225673 27.364057 1.712333 13.204711 46.599739 0.000000 0.000000 0.000000 -13.639320 -1.942252 -42.007618 -8.361126 -17.679495 40.472950 -35.255981 -11.844154 124.404971 -4.682000 13.016500 -39.430300 -0.691722 2.513522 -2.402211 7.831925 1.541163 -10.908150 2.354220 2.280865 -1.973941 -1.864500 0.198300 -3.163500 -10.206275 -13.442453 -46.400150 92.215693 -65.657660 -97.522153 -3.421414 -2.854922 37.744870 -7.125000 0.000000 0.000000 44.986984 23.163109 -9.263332 -28.767256 29.681644 -28.883652 -3.910352 3.178107 -52.354528 7.125000 0.000000 0.000000 
10.319228 12.379129 11.678865 159.496250 -53.744776 -166.799097 -7.146110 3.865546 -37.605046 1.522722 13.151899 27.316468 1.741605 13.256796 46.790963 0.000000 0.000000 0.000000 -13.793987 -1.436482 -41.907154 -8.272581 -17.708041 40.308101 -35.276694 -11.940486 124.425137 -4.710300 13.049900 -39.555600 -0.840328 2.804014 -2.245842 8.210988 1.727217 -11.033936 2.362645 2.316866 -2.145021 -1.834300 0.208700 -3.402600 -9.922284 -13.421272 -46.653582 91.573320 -65.803420 -97.317943 -3.466832 -2.877310 37.933168 -7.125000 0.000000 0.000000 44.741512 23.288386 -9.611460 -28.970243 29.672904 -29.127751 -3.846749 3.191175 -52.260258 7.125000 0.000000 0.000000 
10.329878 12.342577 11.701742 159.417143 -53.896282 -166.547317 -7.128175 3.729434 -37.884693 1.393833 13.092483 26.960629 1.747680 13.325863 46.804294 0.000000 0.000000 0.000000 -13.711546 -1.837479 -42.274646 -8.268753 -17.629243 40.175303 -35.435941 -12.464397 124.585099 -4.589400 12.906000 -39.017400 -0.838860 2.725654 -2.222084 8.057610 1.685814 -11.051062 2.340208 2.271756 -2.293371 -1.847900 0.174200 -3.685700 -9.663000 -13.312518 -47.050926 91.189132 -66.066495 -97.164950 -3.494929 -2.883607 37.870230 -7.125000 0.000000 0.000000 44.669941 23.397283 -9.784911 -29.123673 29.694795 -29.361339 -3.734545 3.214645 -52.202520 7.125000 0.000000 0.000000 
10.347233 12.325090 11.689120 159.235494 -53.775207 -166.482283 -7.205080 3.885329 -37.941453 1.395643 13.069685 26.947531 1.750030 13.330847 46.827421 0.000000 0.000000 0.000000 -13.783640 -1.840421 -42.393137 -8.254197 -17.625127 40.088893 -35.555908 -12.843294 124.737300 -4.363400 12.628800 -37.994500 -0.872337 2.708612 -2.184605 8.082454 1.699208 -11.138973 2.269042 2.402958 -2.418950 -1.964700 0.194600 -3.847400 -9.265814 -13.009930 -47.530634 90.517615 -66.416964 -96.965080 -3.566841 -2.923997 37.747619 -7.125000 0.000000 0.000000 45.011400 23.572592 -9.836200 -29.365949 29.803220 -29.606957 -3.796888 3.247139 -52.359320 7.125000 0.000000 0.000000 
10.361433 12.322329 11.683993 158.982435 -53.612569 -166.270201 -7.402390 4.054839 -38.072625 1.416290 13.073758 27.047513 1.738021 13.297727 46.788267 0.000000 0.000000 0.000000 -13.855750 -1.912436 -42.578430 -8.226462 -17.606961 40.019601 -35.537339 -12.715211 124.787997 -4.438200 12.721700 -38.335400 -0.905144 2.684750 -2.147047 8.106796 1.738081 -11.248689 2.227843 2.623314 -2.574511 -2.028600 0.270500 -4.108500 -8.995797 -12.859187 -47.885595 89.838660 -66.633238 -96.747013 -3.664863 -2.913565 37.744104 -7.125000 0.000000 0.000000 44.841932 23.773737 -9.927895 -29.125610 29.617166 -29.343559 -3.958785 3.362744 -52.796953 7.125000 0.000000 0.000000 
10.371425 12.338896 11.681757 158.885163 -53.637022 -166.169091 -7.442600 4.023521 -38.033595 1.462098 13.116560 27.214444 1.725238 13.251833 46.732901 0.000000 0.000000 0.000000 -13.787537 -2.123181 -42.650808 -8.234280 -17.594591 40.122753 -35.362474 -11.981190 124.709189 -4.790800 13.144300 -39.911000 -0.915412 2.676833 -2.110031 8.103672 1.749266 -11.262385 2.185310 2.653458 -2.681006 -2.096600 0.256500 -4.279400 -8.796969 -12.869711 -48.206843 89.099851 -66.722832 -96.491892 -3.779398 -2.862077 37.862748 -7.125000 0.000000 0.000000 43.925295 24.037611 -10.275470 -28.178076 28.931739 -28.301607 -4.059700 3.497091 -53.103492 7.125000 0.000000 0.000000 
10.378788 12.370188 11.681494 158.823977 -53.670183 -165.980363 -7.457286 3.893700 -38.007089 1.517538 13.188424 27.432486 1.706757 13.188514 46.639149 0.000000 0.000000 0.000000 -13.712218 -2.338298 -42.777306 -8.280051 -17.613536 40.317546 -35.282403 -11.502606 124.759848 -5.016100 13.402000 -40.892400 -0.905224 2.630534 -2.105325 8.037066 1.709894 -11.316471 2.182461 2.635791 -2.763893 -2.101300 0.240400 -4.431000 -8.591553 -12.813921 -48.470753 88.391064 -66.845011 -96.240522 -3.900234 -2.838847 37.883579 -7.125000 0.000000 0.000000 44.256783 23.907624 -10.270690 -28.618548 29.241018 -28.881762 -4.078453 3.495960 -52.979940 7.125000 0.000000 0.000000 
10.385625 12.419625 11.673211 158.791278 -53.605228 -165.823756 -7.487947 3.778387 -37.917115 1.634313 13.304442 27.833260 1.678512 13.082121 46.507519 0.000000 0.000000 0.000000 -13.640376 -2.462003 -42.885058 -8.331333 -17.667702 40.633566 -35.145517 -10.630783 124.879903 -5.360300 13.778400 -42.357100 -0.938350 2.661731 -2.090454 7.982097 1.741444 -11.384561 2.206607 2.556770 -2.833769 -2.058500 0.208900 -4.517100 -8.281273 -12.788400 -48.667845 87.699177 -66.930249 -95.979590 -3.988973 -2.871360 37.648033 -7.125000 0.000000 0.000000 44.515778 23.780489 -10.439558 -28.767553 29.344333 -29.119478 -4.045561 3.470415 -52.665646 7.125000 0.000000 0.000000 
10.393251 12.490887 11.656382 158.919236 -53.475724 -165.787299 -7.457246 3.717636 -37.746855 1.818254 13.468604 28.384684 1.648596 12.951376 46.372492 0.000000 0.000000 0.000000 -13.515697 -2.464131 -42.901960 -8.396177 -17.762156 41.141455 -34.854187 -9.003708 124.941558 -5.956600 14.386100 -44.807100 -0.983721 2.807347 -2.041377 8.150268 1.814187 -11.471267 2.093887 2.564935 -3.110986 -1.967300 0.190800 -4.335600 -7.920228 -12.743503 -49.066248 86.523206 -66.995175 -95.583686 -4.141758 -2.885397 37.487704 -7.125000 0.000000 0.000000 44.533458 23.649313 -10.563124 -28.738952 29.338856 -29.100381 -3.953699 3.480461 -52.457978 7.125000 0.000000 0.000000 
10.397327 12.578321 11.644417 158.984608 -53.447822 -165.538467 -7.436634 3.550578 -37.644244 1.999575 13.653232 28.964651 1.609760 12.804799 46.185740 0.000000 0.000000 0.000000 -13.445190 -2.408247 -42.868315 -8.568017 -17.925304 41.778840 -34.844954 -8.474846 125.195458 -6.053000 14.479500 -45.194000 -1.014014 2.809536 -2.008554 8.055861 1.818548 -11.442654 2.059470 2.542470 -3.239971 -2.001700 0.153100 -4.447500 -7.348501 -12.757697 -49.601381 84.997448 -67.043680 -95.019225 -4.360391 -2.842814 37.533212 -7.125000 0.000000 0.000000 44.557846 23.630658 -10.620897 -28.659361 29.298214 -29.049797 -3.897345 3.523005 -52.482309 7.125000 0.000000 0.000000 
10.405084 12.688239 11.606288 159.011261 -53.083672 -165.524796 -7.552351 3.760364 -37.418479 2.305617 13.875019 29.861751 1.565529 12.607761 45.999006 0.000000 0.000000 0.000000 -13.611743 -1.727923 -42.461246 -8.805808 -18.220486 42.575699 -35.019821 -8.660676 125.627970 -5.688300 14.119300 -43.717400 -1.094286 2.941518 -1.912994 8.368888 1.906052 -11.467117 2.041880 2.542450 -3.311936 -2.016100 0.141000 -4.514000 -6.716646 -12.679009 -49.954292 83.028191 -66.904917 -94.360437 -4.687212 -2.757130 37.755947 -7.125000 0.000000 0.000000 44.524297 23.504908 -10.404502 -28.596117 29.319059 -28.926048 -3.825361 3.596408 -52.569631 7.125000 0.000000 0.000000 
10.405347 12.812488 11.581832 159.032359 -52.821720 -165.299574 -7.746396 3.860975 -37.369004 2.603152 14.127252 30.802512 1.505275 12.385994 45.722129 0.000000 0.000000 0.000000 -13.679031 -1.312051 -42.251656 -9.041314 -18.473184 43.410490 -35.093485 -8.343645 126.035161 -5.541200 13.968500 -43.111500 -1.150207 3.014758 -1.857069 8.466589 1.958932 -11.454362 1.997717 2.539851 -3.344457 -2.083000 0.117100 -4.534900 -6.021230 -12.611698 -50.253397 81.260177 -66.712152 -93.759963 -5.015269 -2.688454 37.869570 -7.125000 0.000000 0.000000 44.575304 23.375095 -10.239072 -28.553804 29.349770 -28.861469 -3.717690 3.681251 -52.464156 7.125000 0.000000 0.000000 
